<?xml version="1.0" encoding="utf-8"?>
<!-- Generator: Adobe Illustrator 26.5.0, SVG Export Plug-In . SVG Version: 6.00 Build 0)  -->
<svg version="1.1" id="Layer_1" xmlns="http://www.w3.org/2000/svg" xmlns:xlink="http://www.w3.org/1999/xlink" x="0px" y="0px"
	 width="850.4px" height="850.4px" viewBox="0 0 850.4 850.4" style="enable-background:new 0 0 850.4 850.4;" xml:space="preserve"
	>
<style type="text/css">
	.st0{display:none;fill:none;stroke:#000000;stroke-miterlimit:10;}
	.st1{fill:#930101;}
	.st2{fill:#FFFFFF;}
</style>
<circle class="st0" cx="425.2" cy="424.8" r="406.7"/>
<g>
	<polygon class="st1" points="66.9,-36 -30,-91.9 -126.8,-36 -126.8,75.9 -30,131.8 66.9,75.9 	"/>
	<polygon class="st1" points="292.2,-36 195.4,-91.9 98.5,-36 98.5,75.9 195.4,131.8 292.2,75.9 	"/>
	<polygon class="st1" points="516.7,-36 419.9,-91.9 323,-36 323,75.9 419.9,131.8 516.7,75.9 	"/>
	<polygon class="st1" points="750.1,-36 653.3,-91.9 556.4,-36 556.4,75.9 653.3,131.8 750.1,75.9 	"/>
	<polygon class="st1" points="980.1,-36 883.3,-91.9 786.4,-36 786.4,75.9 883.3,131.8 980.1,75.9 	"/>
	<polygon class="st1" points="980.1,354 883.3,298.1 786.4,354 786.4,465.9 883.3,521.8 980.1,465.9 	"/>
	<polygon class="st1" points="184.5,161.6 87.7,105.6 -9.2,161.6 -9.2,273.4 87.7,329.3 184.5,273.4 	"/>
	<polygon class="st1" points="408.1,161.6 311.2,105.6 214.4,161.6 214.4,273.4 311.2,329.3 408.1,273.4 	"/>
	<polygon class="st1" points="632.5,161.6 535.7,105.6 438.8,161.6 438.8,273.4 535.7,329.3 632.5,273.4 	"/>
	<polygon class="st1" points="866,161.6 769.1,105.6 672.3,161.6 672.3,273.4 769.1,329.3 866,273.4 	"/>
	<polygon class="st1" points="66.9,359.1 -30,303.2 -126.8,359.1 -126.8,470.9 -30,526.8 66.9,470.9 	"/>
	<polygon class="st1" points="292.2,359.1 195.4,303.2 98.5,359.1 98.5,470.9 195.4,526.8 292.2,470.9 	"/>
	<polygon class="st1" points="516.7,359.1 419.9,303.2 323,359.1 323,470.9 419.9,526.8 516.7,470.9 	"/>
	<polygon class="st1" points="750.1,359.1 653.3,303.2 556.4,359.1 556.4,470.9 653.3,526.8 750.1,470.9 	"/>
	<polygon class="st1" points="66.9,763.1 -30,707.2 -126.8,763.1 -126.8,874.9 -30,930.8 66.9,874.9 	"/>
	<polygon class="st1" points="292.2,763.1 195.4,707.2 98.5,763.1 98.5,874.9 195.4,930.8 292.2,874.9 	"/>
	<polygon class="st1" points="516.7,763.1 419.9,707.2 323,763.1 323,874.9 419.9,930.8 516.7,874.9 	"/>
	<polygon class="st1" points="750.1,763.1 653.3,707.2 556.4,763.1 556.4,874.9 653.3,930.8 750.1,874.9 	"/>
	<polygon class="st1" points="980.1,763.1 883.3,707.2 786.4,763.1 786.4,874.9 883.3,930.8 980.1,874.9 	"/>
	<polygon class="st1" points="184.5,556.6 87.7,500.7 -9.2,556.6 -9.2,668.4 87.7,724.3 184.5,668.4 	"/>
	<polygon class="st1" points="408.1,556.6 311.2,500.7 214.4,556.6 214.4,668.4 311.2,724.3 408.1,668.4 	"/>
	<polygon class="st1" points="632.5,556.6 535.7,500.7 438.8,556.6 438.8,668.4 535.7,724.3 632.5,668.4 	"/>
	<polygon class="st1" points="866,556.6 769.1,500.7 672.3,556.6 672.3,668.4 769.1,724.3 866,668.4 	"/>
</g>
<circle class="st2" cx="422.4" cy="428.2" r="412.8"/>
<g>
	<g>
		<path d="M273,671.9l-16.9,24.8l-0.5-0.4c6.7-16.4,3.3-30.9-6.4-38.5l-2.4-1.8l-22.6,29.1l1.4,1.1c7.2,5.6,17.6,4,23.7-0.4l0.5,0.4
			L229.7,712l-0.5-0.4c2.6-6.9,1.7-17.6-5.4-23.1l-1.4-1.1l-16.6,21.3c-4.8,6.2-4.6,11,0.9,17.2l-0.4,0.5l-34.7-27.1l0.4-0.5
			c4.3,1.2,7.9,1.2,12.2-3.4l36.9-47.4c5.1-6.5,4.2-9.9,1.6-14.6l0.4-0.5L273,671.9z"/>
		<path d="M307.8,765.8c-0.6,6.8-0.2,11.7,3.6,15.9l-0.2,0.5L272,764.4l0.2-0.5c6.1-0.3,10.1-4.5,11.2-14.8l1.3-12.1l-23.5-10.7
			l-10.8,11.5c-5.6,6-4.8,11.3-1.5,15.4l-0.2,0.5l-18.8-8.6l0.2-0.5c5.6,0.1,9.9-3,16.2-9.5l49.8-52.1l18.1,8.3L307.8,765.8z
			 M264.2,723.3l21.1,9.6l3.9-36.2L264.2,723.3z"/>
		<path d="M387.3,752.2c17.6,2.2,28.3,11.4,26.4,24.7c-2.1,14.7-15.1,20.5-38.4,17.1l-42.2-6.1l0.1-0.6c4.9-1.2,8.3-3.4,9.5-11.7
			l8.2-56.8c1.2-8.2-1.2-10.7-5.8-13.5l0.1-0.6l43.1,6.2c19.7,2.9,28.9,10.8,27,23.7c-1.8,12.4-11.8,18.2-27.9,16.8L387.3,752.2z
			 M370.2,789.6c7.8,1.1,14-5.4,15.6-16.7c1.9-12.9-1.4-19.5-11.6-21l-2.5-0.4l-5.4,37.4L370.2,789.6z M377.2,713l-5.2,35.6l2.5,0.4
			c8.7,1.3,12.9-5.9,14.4-16.5c1.6-11.4-1.4-18-9.5-19.2L377.2,713z"/>
		<path d="M433.4,799.6l-0.1-0.6c4.4-2.5,7-5.5,5.9-13.9l-7.7-56.8c-1.1-8.2-4.1-10-9.3-11.3l-0.1-0.6l40.9-5.5
			c23.5-3.2,33.9,3.9,35.6,16c1.5,11.2-9.5,22.2-24.2,24.2l0.1,0.8c12.7-2.1,23,2.3,27.7,11.4l8.2,15.8c2.8,5.4,6.8,7.4,10.1,7.8
			l0.1,0.8l-31.7,4.3c-2.7-2.9-4.3-6.4-6.1-10.3l-8.7-18c-3.5-7.2-5.9-9.7-10.8-9.1l-2.7,0.4l3.6,26.6c0.8,5.9,4.5,10.5,9.3,11.8
			l0.1,0.6L433.4,799.6z M460.1,752.1l2.3-0.3c7.5-1,10.5-8.9,8.9-20.7c-1.5-10.8-5.8-17.1-13.9-16l-2.3,0.3L460.1,752.1z"/>
		<path d="M546.6,688c-3.9,3.7-4.8,8.9-2.8,14.4l20.3,53.6c2.1,5.6,6.7,9.3,11.8,9.4l0.2,0.6l-37.9,14.4l-0.2-0.6
			c3.7-3.5,5.6-7,2.6-14.8l-20.3-53.6c-2.9-7.7-6.3-8.8-11.6-8.9l-0.2-0.6l37.9-14.4L546.6,688z"/>
		<path d="M584,666.5c-2.9,4.5-2.6,9.8,0.7,14.6l32.3,47.4c3.4,5,8.7,7.4,13.6,6.4l0.3,0.5l-33.5,22.8l-0.3-0.5
			c2.8-4.2,3.8-8.1-1-15l-32.3-47.4c-4.7-6.8-8.2-7.1-13.4-6l-0.3-0.5l33.5-22.8L584,666.5z M656.9,701.3c10,4.4,13.1,5,17.4,3.8
			l0.3,0.5l-28.8,19.6l-45.3-20.7l6.2-30.9c1.1-5.6,1.7-9.3-0.4-12.3c-2.4-3.5-6.5-4.4-13.3-1l-0.3-0.5l29.2-19.9l0.3,0.5
			c-6.1,7.2-7.7,15.4-9.4,23l-3.3,17.1L656.9,701.3z"/>
	</g>
	<g>
		<path d="M168.4,287.9l-14.6-19.2l0.3-0.5c16.2,6.1,30.8,0.2,37.6-9.8c3.9-5.6,3.5-12-1.7-15.6c-3.2-2.2-7-2.9-13.5,1L157.7,255
			c-11.2,6.5-22.8,6-31.5,0c-10.8-7.4-17.8-22.4-4.2-42.1c6.1-8.9,16.1-17.2,23.4-20.8l11.3,18.3l-0.3,0.5
			c-14.9-4.4-26.8,0.3-32.7,8.9c-5,7.2-3.1,12.3,0.2,14.5c3.3,2.2,7.5,2.7,13.7-0.8l19.7-11.4c12.5-7.4,21-6.4,29.6-0.4
			c14,9.7,17.9,27.8,7,43.5C186.2,276.4,177.4,283.6,168.4,287.9z"/>
		<path d="M183.8,204.8c-17.3-19.6-16.4-45.9,2.2-62.2c7.7-6.7,17.4-11.8,26.7-14l10.5,27l-0.5,0.3c-12.3-10.9-24-12.2-33.5-3.8
			c-8.7,7.7-8.4,19.1,0.9,29.7c14.3,16.3,33.6,19.1,47.5,6.8c7.9-7,10.2-13.1,7.6-20.8l0.9-0.3c9.9,18.1,8.2,33.3-5.3,45.1
			C224,227.5,201,224.4,183.8,204.8z"/>
		<path d="M308.7,74c-3.5,3.8-4.6,8.3-1.5,14.8l24.5,51.9c3.1,6.5,7.2,8.5,12.4,8.2l0.3,0.5l-36.7,17.3l-0.3-0.5
			c3.5-3.8,4.6-8.3,1.5-14.8l-11.8-25.1l-20.8,9.8l11.8,25.1c3.1,6.5,7.2,8.5,12.4,8.2l0.3,0.5l-36.7,17.3l-0.3-0.5
			c3.5-3.8,4.6-8.3,1.5-14.8L240.8,120c-3.1-6.5-7.2-8.5-12.4-8.2l-0.3-0.5L264.8,94l0.3,0.5c-3.5,3.8-4.6,8.3-1.5,14.8l11,23.3
			l20.8-9.8l-11-23.3c-3.1-6.5-7.2-8.5-12.4-8.2l-0.3-0.5l36.7-17.3L308.7,74z"/>
		<path d="M396.7,57.9l23.1-3.1l0.1,0.6c-6.2,2.6-8.1,6.8-7.1,14.1l9.4,70.9l-0.6,0.1l-69.9-59.6l7,52.5c1.1,8.3,4.6,10.8,11.8,12.1
			l0.1,0.6l-24.5,3.3l-0.1-0.6c7.3-3,9.3-6.4,8.2-14.8l-7.7-57.6L335,66.7l-0.1-0.6l32.8-4.4L412,97.2l-3.6-27.1
			c-1-7.4-3.2-10.1-11.7-11.6L396.7,57.9z"/>
		<path d="M504.9,136.5c1.3,6.8,3,11.3,7.8,14.3l-0.1,0.6l-42.5-6.5l0.1-0.6c5.8-1.9,8.5-7.1,6.8-17.3l-2.1-12l-25.5-3.9l-7.3,14.1
			c-3.8,7.3-1.5,12.2,2.8,15.2l-0.1,0.6l-20.4-3.1l0.1-0.6c5.4-1.5,8.7-5.6,13-13.5l33.7-63.7l19.7,3L504.9,136.5z M451.3,107.5
			l22.9,3.5L468,75.1L451.3,107.5z"/>
		<path d="M612.3,105.8l-0.2,0.5c-5.3-0.1-8.8,0.8-12.1,8.3L582.8,153c-7.7,17.3-23.2,24-42.1,15.5c-20.6-9.2-26.6-25.1-17.3-46
			L539,87.4c3.4-7.6,1.7-10.7-1.9-14.5l0.2-0.5l39.2,17.5l-0.2,0.5c-6.7-0.5-11.4,0.7-15,8.9L546,133.5c-6.3,14.1-3.8,24.3,7.2,29.2
			s20.2,0,26.6-14.2l15.3-34.2c3.7-8.2,1.5-12.5-3.4-17.1l0.2-0.5L612.3,105.8z"/>
		<path d="M574.7,181.1l0.4-0.5l84-34.7l-3.7-3c-16.9-12.9-32-6.1-46.8,2.3l-0.5-0.4l24.5-25l51.5,41.6l-0.4,0.5L600.1,197l3.7,3
			c17.3,13.2,39.4,3.9,49.8-2.8l0.5,0.4L628,224.2L574.7,181.1z"/>
		<path d="M699.5,262l-28.8,17.5L632,228l0.5-0.4c4.3,2.6,8.3,3.4,15-1.6l45.9-34.4c6.6-5,6.7-8.5,5.4-13.6l0.5-0.4l37.9,50.6
			l-22.9,19.5l-0.4-0.5c9.5-12.5,12-28,3.9-38.8L716,206l-28.4,21.3l0.7,1c6.5,8.7,15.6,9.3,22.6,6.9l0.4,0.5L685,255.5l-0.4-0.5
			c4.7-6.4,7.2-15.8,0.8-24.4l-0.7-1l-30.1,22.5l1.8,2.4c9.2,12.3,22.9,13.4,42.7,7L699.5,262z"/>
	</g>
	<path d="M542.9,224.1c2.9-3.3,5.7-3.1,7.9,0.6c0.4,0.7,0.8,1.8,1.6,1.5c2.2-0.8,3.2,0.2,4.1,2c0.6,1.1,1.9,1.6,3.2,1.6
		c3.8-0.1,7.1,1.9,10.8,2.3c5.6,0.7,10.2,4,14,8.3c1.6,1.9,3.5,3.5,5.8,4.5c1.8,0.7,2.8,2.1,3.7,3.7c3.7,6.4,4.7,13.4,5.3,20.6
		c0.6,6.8,1.3,13.7,2.4,20.4c0.7,4.4-0.5,8.4-4,11.1c-2.9,2.3-3.7,5.2-3.7,8.7c0,3.3-0.4,6.5-0.7,9.8c-0.6,6.7-5,10.2-10.1,13
		c-3,1.7-6.1,3.2-9.5,3.7c-2.3,0.4-3.6,1.8-4.4,3.8c-1.1,2.6-2,5.3-1.8,8c0.3,4.4-1.2,6.8-5.1,9.1c-5.8,3.4-10.7,8.1-15,13.3
		c-2.7,3.2-5.5,6.5-8.3,9.7c-1.9,2.2-3.1,4.8-4.3,7.5c-0.3,0.7-0.4,1.6-1,2.2c-0.7,0.6-1.7,0.8-1.9-0.3c-0.3-2.2-1.5-4.3-1.2-6.7
		c0.5-3.6,0.6-7.3,0.8-11.2c-2.2,1.4-2.2,1.4-4.2-0.6c-0.9-0.9-2-1-2.9-0.1c-0.6,0.6-0.8,1.4-1.3,2.1c-1.2,1.5-2,1.4-2.9-0.4
		c-0.2-0.4-0.5-0.8-0.5-1.1c0.8-4.5-2.6-7.1-4.7-10.1c-2.9-4-2.5-8.2-2-12.5c0.3-2.3-0.3-3.5-2.4-3c-2,0.5-2.5-0.2-2.7-1.8
		c-0.2-1.4-0.2-2.7-2.3-2.6c-1.3,0.1-1.4-1.1-1.3-2.1c0.1-1.1,0.4-2.2,0.4-3.3c0-0.9,0.1-2.4-1-2.5c-2.6-0.2-2.8-1.8-2.4-3.7
		c0.2-1.5-0.7-2.3-1.6-3.1c-2.7-2.3-5.4-4.7-8.1-6.9c-4.7-3.8-9.1-7.9-13.6-11.9c-5.9-5.3-12.7-9.5-19.5-13.7
		c-1.5-0.9-3.3-1.1-5.1-1.5c-13.1-2.3-26.3-3.8-39.5-5.6c-6-0.8-9.7-5-9.9-10.8c-0.1-4.5,3.7-8.1,8.2-7.5c1.8,0.2,3.5,0.8,5.2,1.1
		c0.8,0.2,1.8,0.5,2.1-0.5c0.3-1,0.5-2.2-0.8-2.9c-1-0.5-2-0.9-3-1.3c-0.6-0.3-1.3-0.7-1.2-1.5c0.1-0.9,0.8-1.5,1.6-1.6
		c2.7-0.4,5.6-1.7,8.2,0.4c0.3,0.2,0.8,0.1,1.2,0.1c0.1,0,0.2-0.1,0.3-0.2c0.6-1.8-2.7-1.9-1.8-3.6c0.7-1.3,2.5-0.8,3.8-1.2
		c0.9-0.2,1.2-0.8,1.1-1.9c-0.4-2.3-1.1-4.7-0.7-6.8c0.5-2.3,3.7-2.5,5-4.4c1.1-1.5,2.2-2.1,3.6-0.6c1.5,1.6,2.5,0.5,3.8-0.5
		c2.7-2.2,4.5-5.2,6.8-7.8c0.8-0.8,1.2-1.4,2.3-0.8c0.7,0.4,1.4,0.2,1.7-0.5c1.3-2.8,3.8-3.4,6.5-3.4c1.8,0.1,2.6-0.3,2.2-2.3
		c-0.2-0.9,0-2,0.9-2c4.6-0.5,7.7-3.8,11.7-5.6c4.9-2.1,9.9-4.1,14.6-6.7c1.5-0.8,3.7-0.2,5.1-1.8c0.1-0.1,0.7-0.1,0.8,0
		c1.2,2.5,2.3,0.7,3.8,0.3c2.1-0.6,4.5-0.1,6.8-0.1c1.5,0,0.9,2.4,2.5,3.3c2.3-3.3,5.5-3.2,8.9-1.9c3,1.1,6.4,1.3,9.3,2.2
		c2.4,0.7,5.9,0.1,7.6,3.3c0.7,1.2,2.7,1.2,3.9-0.3c1-1.2,2.1-1.2,2.4,0.2C539.2,221.5,541.3,222.5,542.9,224.1
		c0.1,0.6,0.1,1.3,0.1,2c0.1,2.7-0.5,3.5-2.9,2.9c-3.2-0.9-7-0.7-8.9-4.4c-0.8-1.5-5.2-2.6-5.8-1.7c-1.6,2.5-3.3,1.1-4.9,0.5
		c-4.5-1.6-8.9-3.5-13.9-2.7c-1.2,0.2-1.8-0.5-2.3-1.4c-0.6-1-1.8-1.6-2.4-0.9c-1.7,1.8-4.2,1-5.9,2.2c-1.6,1.1-3.2,1.2-5,0.8
		c-2.5-0.5-6.5,2.1-6.9,4.3c-0.1,0.7-0.1,1.4-1,1.5c-0.8,0.1-1.1-0.6-1.4-1.2c-0.7-1.4-0.6-3.1-2-4.6c0,1-0.2,1.6,0,2.1
		c1,2.3,0.3,3.8-1.7,5.1c-3.9,2.6-7.8,5.1-12.5,6.1c-0.5,0.1-1.5,0.2-1.5,0.4c-0.5,3.1-4,2.5-5.3,4.4c-1.1,1.6-2.7,0.2-3.7,1
		c-1.1,0.9-0.2,2.8-1.7,3.5c-0.4,0.2-0.7,0.4-1.1,0.6c-3.2,1.9-3.2,1.9-2.1,5.4c0.5,1.7,0.8,2.7-1.7,2.9c-3.2,0.3-3.5,1.5-1.6,4.3
		c0.5,0.7,0.9,1.4,1.5,2c1.1,1.2,1.7,2,0.4,3.8c-1.8,2.4-0.8,4.1,2.1,4.8c4,1,7.4,2.9,10.3,5.8c4,3.9,9.1,5.6,14.5,6.2
		c1.9,0.2,4,0.4,5.2-1.6c1.2-2.1-0.2-3.8-1.5-5.1c-2.3-2.3-1.7-5.4,0.3-7.4c3.3-3.4,7.4-5.9,12-6.6c4.8-0.7,9.6,0,14.1,2.1
		c2.2,1.1,4.5,2,6.9,2.7c3.4,1,5.6,3.3,6.8,6.6c3,8.3,2.8,16.4-1,24.4c-2.4,5-4.9,9.8-7.3,14.8c-1.2,2.5-2.5,4.9-3.6,7.4
		c-0.6,1.3-0.3,2.1,1.3,2.2c0.5,0,1.1,0.2,1.6,0.2c2.8,0.3,3.2,0.4,3,3c-0.1,1.6,0.2,2.7,1.6,3.4c1.4,0.7,1.3,2.2,2,3.4
		c0.6-0.1,1.1-0.2,1.7-0.3c0.9-0.2,1.9-1,2.6,0.2c0.5,0.8-0.1,1.6-0.4,2.3c-0.6,1.2-1.1,2.5-1.6,3.8c-0.3,0.8-0.9,1.8,0.3,2.7
		c1.4-0.7,1.7-2.3,2.7-3.4c0.6-0.7,1.4-1,2.2-0.4c0.8,0.7,2.6,0.7,2.1,2.1c-0.8,2.5,0.3,5.5-1.9,7.7c-0.7,0.7-1.2,1.8-0.8,3.5
		c1.6-3.3,3.8-2.5,5.8-1.4c1.8,1,2.4,0.2,3-1.3c0.8-1.9,0.3-3.8,0.6-5.7c0.2-1.6,0.7-2.9,2.4-1.2c0.7,0.7,1.3,0.4,1.5-0.3
		c0.3-0.8,0.3-1.6,0.5-2.4c2.4-10.6,3.5-21.4,5.5-32c0.9-4.8,2.2-9.6,2.6-14.6c0.1-0.8,0.4-1.8,1.4-1.8c1.1,0.1,1.1,1,0.9,1.9
		c-0.4,2.3-0.5,4.4,0.9,6.7c0.8,1.4,0.9,3.7-0.1,5.6c-2.4,4.5-3.3,9.6-5,14.4c-0.6,1.8-1,3.8-0.4,6.2c1.6-1,2.2-2.2,2.1-3.6
		c0-1-0.2-1.9,0.3-2.8c0.5-1,0.6-2.6,2.3-2.5c0.8,0,2.1,2.9,1.7,3.9c-0.4,1-1,1.9-1.5,2.9c-1.1,2.2-3,4.3-3,6.7
		c0.1,2.9-0.6,5.4-1.4,8c-0.3,1.2-0.4,2.1,1,2.6c1.3,0.5,0.8,1.5,0.3,2.4c-1.1,1.9-2.3,3.8-3.3,5.7c-0.3,0.5-0.5,1.6,0.6,1.4
		c2.6-0.3,1.8,1.1,1.4,2.5c-0.5,1.8,0.3,2.6,1.9,2.3c0.8-0.1,1.6-0.5,2.3-0.8c1.7-0.8,1.1-3.2,2.5-4.1s3.5,0.6,4.8-1.4
		c0.8-1.3,1.7-1.1,3-0.2c2.1,1.6,4.7,0.2,4.9-2.5c0.2-1.9,0.1-3.9,0-5.8c-1.1-15.3,3-29.7,7.1-44.1c0.9-3.1,2.3-5.9,4.4-8.3
		c4.4-5.2,11.1-5.3,15.7-0.4c2.4,2.6,3.9,5.6,4.3,9.1c0.2,1.8-0.2,3.8,1,5.9c2.2-1.1,2.9-3,3.1-5.1c0.1-1.8,0.1-3.6-0.2-5.3
		c-1.1-6.7-1.7-13.3-2.3-20c-0.4-4.4-1-8.8-2.6-12.9c-1-2.5-1.3-5.9-5.3-5.7c-2.7-2.7-6.7-3.9-8.7-7.6c-0.8-1.4-2.1-2.8-3.8-2.8
		c-2.5,0.1-4.7-1.4-7.2-0.9c-1.1,0.2-2.2-0.1-2.8-1.3c-0.5-1.1-1.4-1.4-2.3-0.8c-2,1.3-3.1,0.7-4.7-1c-2-2.1-5.9-1.4-7.9-4.2
		c-5.1,0.9-7.1-2-8.1-6.3C543.1,224.3,543,224.2,542.9,224.1z M534.5,380c-0.5,0-0.7,0.4-0.7,0.8s0.2,0.9,0.7,0.6
		c0.3-0.2,0.4-0.6,0.5-1C535,380.3,534.6,380.1,534.5,380z M566.8,337.1c0.2-0.1,0.3-0.3,0.5-0.4c-0.2-0.1-0.3-0.4-0.5-0.4
		s-0.3,0.2-0.5,0.4C566.5,336.8,566.7,337,566.8,337.1z M500.4,215c-0.2-0.1-0.4-0.4-0.5-0.4c-0.3,0-0.4,0.3-0.2,0.5
		c0.1,0.1,0.2,0.2,0.3,0.2C500.3,215.5,500.4,215.4,500.4,215z M339.7,475.2c-0.2-0.1-0.5-0.4-0.6-0.4c-6.1,1.9-12.6,3-17.4,7.7
		c-0.9,0.8-1.8,1.1-2.9,1.2c-2.6,0.5-5.1,1-7.7,1.5c-1.1,0.2-2.2,0.6-2.6,1.7c-0.5,1.3-1.6,1.8-2.8,2.2c-8.6,2.9-17.1,5.9-25.1,10.3
		c-0.7,0.4-1.6,0.9-2.2,0c-0.8-1.1,0.3-1.8,1-2.3c3.1-2.1,6.6-3.4,10-4.8c2-0.8,4.1-1.3,5-3.8c0.5-1.5,2.5-1.6,3.8-2.2
		c0.5-0.3,0.9-0.7,0.7-1.3c-0.3-0.8-1.2-1-1.7-0.6c-6.1,3.9-13.8,3.5-19.7,7.8c-0.6,0.4-1.4,0.7-1.9,0.3c-2.3-1.8-4.2-0.3-6,0.7
		c-16.4,9-32.7,18.1-47.5,29.6c-4.2,3.3-8.6,6.5-12.9,9.5c-6.2,4.4-12.1,9.1-17.6,14.2c-5.3,4.8-10.7,9.4-16,14.3
		c-22.1,20.5-41.3,43.3-55,70.4c-4.2,8.2-8.5,16.3-12.7,24.5c-0.3,0.5-0.5,1-0.8,1.4c-0.5,0.9-1.3,1.6-2.3,1
		c-0.8-0.5-0.7-1.4-0.4-2.2c0.2-0.6,0.5-1.3,0.8-1.9c8.6-16.4,16.6-33.2,27-48.6c4.2-6.2,8.6-12,13.4-17.8
		c16.2-19.5,34.8-36.6,54.6-52.4c18.2-14.6,37.3-28.1,57.7-39.5c1.2-0.6,2.6-1,3.2-2.4c-1-0.9-1.8-0.1-2.7,0.2
		c-3.4,1.2-6.7,2.3-10,3.7c-14,5.7-28,11.3-42.2,16.4c-3.6,1.3-7.1,2.9-10.4,4.9c-20.6,12.3-41.5,24.2-61.7,37.2
		c-18.5,11.9-33.4,27.1-46.7,44.2c-2.7,3.5-5.2,7.1-8.3,10.3c-0.7,0.7-1.3,1.4-2.1,1.9c-0.6,0.4-1.3,0.3-1.8-0.4
		c-0.4-0.5-0.4-1-0.2-1.5c0.5-1,1.3-1.7,2.1-2.5c4.8-4.9,8.3-10.8,13.2-16.7c-3.7,1.5-7.1,4.1-11,8.3c-0.7,0.8-1.5,1.6-2.3,2.3
		c-0.5,0.5-1.3,0.6-1.9,0.1s-0.5-1.3-0.2-1.9c0.6-0.9,1.2-1.9,2-2.6c1.7-1.7,3.6-3.4,5.4-5.1c4.9-4.4,10.1-8.5,14.7-13.2
		c7.6-7.6,16.1-14.2,25.2-19.9c5.6-3.5,10.9-7.4,15.7-12c4.5-4.2,9.5-8,14.8-11.2c9.2-5.6,18-11.6,26.9-17.6
		c6.3-4.2,12.7-8.2,19.5-11.4c1.7-0.8,3.5-1.6,5.5-1.8c0.7-0.1,1.3,0.3,1.5,1.1c0.1,0.6-0.3,1-0.8,1.3s-1,0.4-1.5,0.7
		c-11.7,4.7-21.7,12.3-31.9,19.4c-0.3,0.2-0.6,0.5-0.4,1.1c1.4,0,2.4-0.9,3.6-1.6c4.4-2.5,8.9-5,13.2-7.7
		c7.5-4.7,15.4-8.5,23.8-11.3c13.4-4.5,26.3-10.4,39.5-15.4c6.3-2.4,12.6-4.6,19.2-6.3c1.4-0.4,2.9-0.6,3.6-2.4
		c0.5-1.3,1.8-1.6,3-1.9c6.5-1.7,13-3.3,19.5-5c1.2-0.3,2.3-0.6,3.5,0.4c1.7,1.5,3.3,1,5.2,0.1c9-4.2,18.2-7.6,27.8-10.3
		c0.3-0.1,0.5-0.1,0.8-0.2c1.1-0.3,2.5-0.8,2.8,0.7s-1.3,1.5-2.3,1.7c-8.3,2.1-16.1,5.5-24,8.7c-0.9,0.4-2.2,0.5-2.6,2.1
		c1.5,0.2,2.7-0.5,3.9-0.9c6.4-1.9,12.6-4.8,19.4-5.3c0.3,0,0.7,0,0.8-0.2c2.3-4,7.5-3,10.4-6.1c0.9-1,2.3-1.4,2.7-2.9
		c0.2-0.8,1-1.4,1.8-1.6c3.3-0.9,5.8-3.7,9.1-4.6c0.8-0.2,1.7-0.6,1.4-1.7c-0.5-2.4,1.2-2.8,2.8-3.3c2.1-0.7,4.6-0.7,5.1-3.8
		c0.1-0.7,1.2-1,2-1.3c5.1-2,10.3-3.9,15.4-5.9c0.3-0.1,0.5-0.2,0.8-0.3c1.1-0.3,2.7-1.2,3.2,0.4c0.6,1.8-1.5,1.5-2.5,1.9
		c-2.9,1.1-5.9,2.1-9.2,4.1c2.7,0.5,4.5-0.4,6.3-0.7c2-0.4,4-0.8,6.1-0.7c0.7,0,1.5,0.1,1.4,1.1c-0.1,0.6-0.5,1-1.1,1.1
		c-1.9,0.4-3.8,0.6-5.7,1c-1.2,0.2-2.4,0.4-3.6,1.6c1.8,0.1,3.3,0.2,4.9,0.4c0.4,0,0.8,0.3,0.8,0.8c0.1,0.6-0.3,1.1-0.9,1.2
		c-0.9,0.2-1.9,0.2-2.9,0.3c-1.5,0.2-3.2,0.2-3,2.5c0,0.2-0.2,0.7-0.3,0.7c-2.2,0.7-3.6,2.7-5.8,3.4c-1.6,0.5-3.3,0.2-2.3,2.8
		c0.2,0.5-0.7,1-1.5,1.1c-1.5,0.3-3,0.5-4.5,0.8c-2,0.4-4.1,0.4-4.8,3.1c-0.2,0.9-1.2,1-2.1,1.1c-3,0.5-5.7,2-8.2,3.6
		c-8.7,5.6-16.4,12.3-23.5,19.9c-15.2,16.2-28.7,33.6-40.2,52.6c-8.5,13.9-14.3,29-19.9,44.3c-1.9,5.2-2.6,10.7-3,16.1
		c-0.4,5.1-0.6,10.1-0.8,15.2c-0.1,6.1-1,12-1.8,18c-0.1,0.4-0.1,0.8-0.2,1.2c-0.4,1.2-0.6,3.2-2.3,2.9c-2.1-0.4-0.9-2.1-0.8-3.4
		c1-7.4,2-14.7,2.1-22.1c0.1-14,2.8-27.3,8-40.5c11.9-30.6,30-57,51.8-81.1c6.7-7.5,13.5-14.9,21.8-20.6
		C339.3,476.3,339.7,475.9,339.7,475.2z M319,480.7c-0.2-0.1-0.4-0.4-0.5-0.4c-0.2,0-0.5,0.2-0.6,0.4c-0.1,0.5,0.3,0.6,0.6,0.5
		C318.7,481.1,318.8,480.8,319,480.7z M562.3,515.9c-1.4-3.2-3.4-5.9-5.5-8.7c-5.6-7.4-10-15.4-13.5-24
		c-5.3-13.3-10.6-26.5-15.9-39.8c-1.6-4.1-3.7-8-6.4-11.5c-1.3-1.7-2.8-3.5-3.2-5.7c-0.5-2.4-2.7-2-4.2-2.7
		c-1.7-0.8-2.1,0.7-2.6,1.7c-0.2,0.3-0.5,0.8-0.8,0.9c-3.7,0.7-5.6,3.8-8.1,6.1c-5,4.5-10.3,8.7-14.4,14.1c-2.2,2.9-4.8,5.2-7.6,7.5
		c-2.3,2-5.5,2.8-7.6,4.8c-2.3,2.2-4.8,4-7.5,5.7c-11.1,7.1-21.6,15-32.7,22.2c-6.9,4.5-14.2,8.3-21.1,12.8c-3.7,2.4-7.1,5.2-11.2,7
		c-6.4,2.9-12.5,6.4-18.5,9.9c-5.7,3.3-11.5,6.5-17.6,8.9c-1,0.4-2,0.9-3,1.4c-0.7,0.4-1.5,1-1.1,1.9c0.4,1,1.3,1,2.1,0.7
		c2.8-1.1,5.7-1.6,8.4-3.1c10.4-5.9,20.7-11.9,31.4-17.3c4.4-2.2,9-4.3,13-7.1c10.3-7.4,21.7-13,32.4-19.6c1-0.6,2.2-1.7,3.3-1.6
		c3.3,0.4,5.3-1.8,7.7-3.3c1.5-0.9,3.1-1.9,4.7-2.5c11-4.5,22.3-7.4,34.4-6.7c8.1,0.5,15.8,1.6,22.2,7.3c0.9,0.8,2,1.4,3.1,2.1
		c7.1,4.3,13.3,9.7,19,15.6c1.3,1.3,2.4,2.7,3.2,4.2c2.5,4.6,5.1,9.1,7.3,13.9c1.2,2.6,3.2,4.7,4.4,7.4c0.7,1.5,2.3,1.9,3.8,2.2
		c1.6,0.4,3-1,2.9-2.8C562.9,517.4,562.6,516.7,562.3,515.9z M215.6,481.1c-2.1-1-3.3-0.4-4.6-0.1c-11,2.6-21.7,5.9-32.2,9.9
		c-16.3,6.1-32.7,12.1-49.2,17.5c-17.2,5.6-32.9,14.5-48.6,23.2c-11.2,6.2-22.4,12.4-34,17.8c-3.4,1.5-6.8,2.9-10.3,4.2
		c-1.3,0.5-2.6,0.7-4,0.9c-0.9,0.1-1.7-0.2-1.8-1.2c-0.1-0.8,0.5-1.2,1.2-1.5c3.5-1.3,7-2.3,10.4-3.9c1.6-0.8,3.3-1.3,3.7-3.4
		c0.2-1.1,1.4-1.6,2.3-2.2c15.1-10.4,30.9-19.5,47.9-26.4c19.4-7.9,38.6-16.6,57.4-26c5.7-2.8,11.4-5.4,17.3-7.6
		c15.8-5.9,31.6-11.8,47.5-17.7c3.1-1.1,6.1-2.5,9.1-3.8c0.7-0.3,1.8-0.7,2-1.3c1.1-3.2,4-3.5,6.6-4.2c5.9-1.8,11.9-3.4,17.8-5.2
		c0.8-0.2,1.6-0.4,2.4-0.5c0.4-0.1,0.8,0.2,0.9,0.7c0.1,0.4,0.1,0.9-0.3,1.1c-1.1,0.7-2.3,1.3-3.5,2c1,1.2,2,0.5,2.7,0.2
		c3.3-1,6.5-2.1,9.8-3.2c1.3-0.4,2.6-1,4-0.6c0.8,0.2,1.6,0.6,1.6,1.6c0,1.1-1,1-1.8,1.2c-5.8,1.7-11.5,3.5-17.3,5.3
		c-0.7,0.2-1.3,0.6-1.2,1.4c0.3,2.3-1.5,2.7-3,3.2c-5.8,2.1-11.6,4.2-17.2,6.9c-2.8,1.3-5.9,2.3-8.3,4.5c-0.8,0.8-1.8,0.9-2.5-0.1
		c-0.8-1-0.1-1.9,0.7-2.4c1.6-1,3.3-1.9,5.1-2.7c5.9-2.7,11.8-5.1,17.9-7.3c1-0.4,2.1-0.5,2.9-1.4c-10-0.4-95.1,32.1-108.1,41.2
		c1,0.8,1.8,0.1,2.7-0.2c10.6-3.4,21-7.3,31.3-11.3c16.2-6.2,32.8-10.9,49.8-14.2c2.2-0.4,4.3-1,6.3-1.8c4.3-1.7,8.7-3.3,13.2-4.5
		c1.1-0.3,2.1-0.5,3.2-0.7c0.7-0.1,1.5-0.2,1.7,0.6c0.3,0.8-0.4,1.3-1,1.5c-0.9,0.3-1.8,0.6-2.8,0.8c-2.7,0.9-5.5,1.7-8.2,2.7
		c-1.3,0.4-2.7,0.7-3.8,2.1c1.4,0.9,2.7,0.4,3.9,0.3c1.1-0.1,2.2-0.4,3.2,0.2c0.4,0.2,0.7,0.5,0.6,0.9c-0.1,0.3-0.3,0.8-0.7,0.9
		c-0.5,0.2-1,0.3-1.6,0.3c-4.3,0.1-8.4,1.3-12.5,2.5c-2.2,0.6-4.5,1.1-6,3.3c-0.7,1.1-2.2,1.1-3.3,1.5c-1.8,0.7-3.6,1.3-5.4,2
		c-0.7,0.3-1.8,0.8-1,1.7c1.3,1.5,0,1.8-0.7,2.8c-1.8,2.6-4.5,3.3-7.1,4.3c-4.2,1.7-8.3,3.5-12,6.3c-0.9,0.7-1.8,1.5-2.9,0.6
		c-0.8-0.6-2.4-0.3-2.5-1.8c-0.1-1.3,1-1.9,2-2.4c1.7-0.9,3.1-2.1,4-4c0.5-1.1,1.8-1.7,2.9-2.3c2.9-1.5,5.9-3,8.8-4.4
		c2-1,4.3-1.6,5.6-3.9c0.6-1.1,2.1-1.2,3.2-1.7C211.8,482.6,213.4,482,215.6,481.1z M82,526.8c-5.5,1.3-12.2,5.2-14.7,8.4
		C72.9,532.6,77.5,529.8,82,526.8z M758.7,625.6c23.9,13.5,27.8,19.5,51.7,33c0.8,0.5,1.7,1,2.5,1.4c0.6,0.3,1.3,0.8,1.9,0
		c0.5-0.7,0.5-1.6,0-2.3c-0.9-1.1-2.2-1.6-3.4-2.3c-28.1-15.9-36.1-24.3-64.2-40.1c-2.8-1.6-5.5-3.1-7.7-5.4
		c-30.8-31.8-64.8-60.2-97.7-89.6c-0.6-0.5-1.1-0.8-1.8-0.3c-0.5,0.4-0.5,1-0.4,1.5c0.2,1.1,1,2,1.8,2.7c1.8,1.8,3.7,3.7,5.7,5.4
		c11.2,9.7,22.5,19.3,33.7,29.1c15,13.1,29.4,26.9,43.6,40.9c0.8,0.8,1.9,1.4,1.8,3.1c-1.8-0.4-3.1-1.3-4.3-2.1
		c-17.5-10.4-34.9-20.8-52.3-31.3c-4.5-2.7-9.1-5.1-13-8.6c-0.7-0.6-1.4-1-2.1-0.1c-0.7,0.8-0.3,1.6,0.2,2.2
		c1.5,1.8,3.6,2.9,5.6,4.2c24,15.2,48.5,29.7,73.1,43.9c4.7,2.7,8.9,5.9,12.7,9.7c7.3,7.4,14.8,14.7,22.3,22
		c19,18.4,34,41,54.5,57.8c0.8,0.7,1.7,1.4,2.6,2.1c0.6,0.4,1.2,0.7,1.9,0.1c0.9-0.7,0.5-1.5-0.1-2.2c-1.9-2.2-4.1-4-6.3-5.9
		c-23.8-20-41.8-45.9-63.9-67.7c-0.8-0.8-2-1.4-2-3.1C756.3,623.8,757.5,624.9,758.7,625.6z M313.6,334.6c7.1-0.2,14.3,0.4,21.4,1
		c0.8,0.1,1.9,0.1,2-0.9c0.2-1-0.8-1.3-1.6-1.4c-3.4-0.4-6.8-1-10.2-0.9c-1.3,0-2.7,0.3-3.9-0.9c2.9-1.1,3-1.1,6.1-0.7
		c4.4,0.5,8.7,1,13,2c0.8,0.2,1.8,0.1,2-0.9c0.1-0.8-0.7-1-1.3-1.3c-1.3-0.7-3.1-0.3-4.7-1.9c1,0,1.4,0,1.8,0
		c5.4,0.2,10.6,1,15.9,2.2c0.8,0.2,1.7,0.5,2.2-0.4c0.7-1.3-0.7-1.5-1.3-2.1c-0.2-0.2-0.9-0.4-0.2-0.8c1.9-0.4,4.7,2.7,5.5-1.6
		c0.1-0.5,1.2-0.4,1.9-0.2c1.2,0.3,2.4,0.7,3.6,1c0.6,0.2,1.1,0,1.4-0.6s-0.1-1.1-0.5-1.4c-1.1-0.9-2.5-1.1-3.8-1.4
		c-6.7-1.5-13.6-1.5-20.4-2.3c-1.7-0.2-4.3-1.7-4.3,2.1c0,0.3-0.8,0.6-1.3,0.9c-1.7,1.1-3.5,1.4-5.5,1.2c-2.3-0.2-4.9-0.8-6.8,0.9
		c-1.8,1.7-3.8,1.8-6,2c-1.5,0.1-3.4,0-3.8,1.8c-0.5,2.1-1.9,2.1-3.4,2.2c-1.9,0.1-3.8,0.3-5.8,0.4c-1.1,0.1-2.4,0.3-2.8,1.4
		c-0.7,1.9-2.1,1.9-3.6,2c-2,0.2-4.7-0.2-5.7,1.6c-1.5,2.6-3.7,2.2-6,2.7c-3,0.7-6.8-0.4-8.5,3.6c-0.4,1-1.9,0.8-3,0.9
		c-2.3,0.1-4.7,0.3-6.9,0.8c-1.1,0.3-2.3,0.5-2.6,1.7c-0.4,1.9-1.8,2.2-3.3,2.5c-2.4,0.5-4.9,0.9-7.2,1.7c-6,2.2-11.8,4.9-18.1,6
		c-1.6,0.3-3.5,0.7-3.9,2.6s-1.7,2.3-3.1,2.8c-2.3,0.8-4.7,1.6-7,2.5c-1.2,0.4-2.6,0.9-3,2.1c-0.7,2.4-2.6,2.5-4.4,3
		c-2.7,0.6-5.4,1-7.8,2.5c-0.8,0.5-1.7,1.2-1,2.3c0.5,0.9,1.4,0.3,2.2,0c7.4-2.8,15.1-4,22.9-4.5c1.3-0.1,3.7,0.8,3.6-1.4
		c-0.1-1.8-2.5-0.9-3.8-1.1c-2-0.2-4,0.7-6.1,0c0.3-1,0.8-1.3,1.5-1.5c3.5-1.1,7-2.3,10.6-3.3c5.1-1.3,10.2-2.1,15.5-1.9
		c0.8,0,1.8-0.2,2-1.1c0.2-1.1-0.9-1.1-1.7-1.3c-0.8-0.2-1.8-0.1-2.4-1.1c2.6-0.8,4.9-0.6,7.2-0.6c1.2,0,2.8,0.3,3.5-0.7
		c1.9-2.6,4.5-2.2,7.1-2.2c2.2-0.1,4.4,0.1,6.6,0c1.1,0,3,0.6,3.1-1c0.2-1.9-1.8-1-2.8-1.4c-0.7-0.2-1.7,0.3-1.9-0.8
		c0.4-0.6,0.9-0.7,1.5-0.8c3.4-0.4,6.8-0.4,10.3-0.4c1.4,0,2.7,0,4.1-0.1c0.4,0,0.8-0.3,0.8-0.8c0.1-0.6-0.2-1.1-0.8-1.2
		c-1.9-0.3-3.9-0.4-5.8-0.6c4.3-0.6,8.5-0.6,12.8-0.7c1,0,2.5,0.6,2.6-1.1c0.1-1.4-1.4-1.1-2.2-1.2c-2.6-0.2-5.2-0.4-7.8-0.6
		c-1-0.1-2.1,0.2-3.3-1c6.6-0.9,12.7-1.4,18.9-0.8c1.6,0.2,3.3,0.3,4.9,0.4c0.8,0.1,1.8,0.1,1.9-1c0.1-0.8-0.7-1-1.4-1.2
		c-2.5-0.7-5.2-0.7-7.8-0.8c-1.4-0.1-2.8,0.2-4-0.7c6.2-0.4,12.3-0.5,18.4,0.2c1.4,0.2,3.8,1.3,4.1-0.9c0.2-1.6-2.4-1.4-3.8-1.6
		c-2.8-0.4-5.7,0-9.2-1.3C310.5,334.4,312.1,334.7,313.6,334.6z M616.8,565.1c-5.3-7-10.6-14-15.7-21.2c-3.3-4.7-7.5-8.8-9-14.6
		c-0.1-0.6-0.7-0.9-1.2-0.8c-0.6,0.1-0.9,0.6-1,1.1c-0.3,1.4,0,2.8,0.7,4c1,1.8,2,3.6,3.2,5.3c7.4,10.6,16.8,23,24.7,33.1
		c1.3,1.7-2,7.1-3.5,9.7c-0.5,0.9,0.2,2.3,1.4,1.7c2.5-1.1,4.6-9.4,5.8-7.9c11.6,14.6,24.7,33.7,34.3,49.8
		c6.7,11.3,13.6,22.6,20.8,33.6s14.7,21.9,21.3,33.3c0.2,0.4,0.4,0.7,0.7,1c0.6,0.7,1.2,1.8,2.3,1c1-0.7,0.6-1.7,0.2-2.6
		c-0.5-1-0.9-2-1.5-2.9c-1.6-2.7-3.2-5.4-4.9-8.1c-8.5-13.3-17.2-26.5-25.7-39.8c-7-11.1-13.5-22.6-20.8-33.6
		c-7.2-10.9-15.3-21.1-23.4-31.3c-1.4-1.8-2.4-3.5-1.8-6c1.7-7.8,2.6-15.7,3.6-23.6c2.3-17.2-0.4-33.3-9.8-48.2
		c-3.7-5.8-7.3-11.6-11.5-17.1c-0.9-1.2-1.7-3.7-3.5-2.3c-1.6,1.2,0.4,2.7,1.2,3.8c4.6,6.5,8.9,13.2,12.8,20.1
		c6.1,10.8,8.9,22.4,8.3,34.8c-0.4,9.5-2,18.8-3.5,28.2c-0.1,0.9-0.3,1.9-1.2,2.5C618.4,567.7,617.7,566.3,616.8,565.1z
		 M325.4,370.8c5.5,0.5,10.2,0.9,14.9,1.3c1.7,0.1,3.3,0.3,4.8,0.9c0.3,0.1,0.7,0.6,0.7,0.9c0.1,0.6-0.4,1-1,1c-1.2,0-2.5,0-3.7-0.1
		c-3-0.2-6-0.5-9-0.7c-1.4-0.1-2.7-0.1-3.7,1.3c-0.9,1.3-2.4,1.1-3.8,1.1c-6,0.1-12.1,0.1-18.1,0.3c-3.2,0.1-6.5,0.5-9.7,1.1
		c2,1,4.2,0.7,6.3,0.7c3.6,0,7.1,0.3,10.7,0.8c0.7,0.1,1.4,0.4,1.4,1.2c0,0.9-0.8,1-1.5,1c-2.6-0.1-5.2-0.2-7.8-0.2
		c-1.4,0-2.8-0.2-3.5,1.4c-0.6,1.2-1.8,1.1-2.9,1.2c-4.2,0.5-8.4,1-12.7,1.5c-1.3,0.2-2.7,0.3-4,1.6c2.6,0.7,4.7,0,6.8-0.3
		c0.8-0.1,1.6-0.4,2.4-0.4c0.5,0,1.1,0.3,1.2,0.9s-0.1,1.1-0.6,1.4c-1.4,0.7-2.9,0.8-4.4,1c-4.3,0.4-8.6,0.9-12.9,1.7
		c2.6,0.1,5.2,0.3,7.8,0.4c0.8,0,1.6,0.1,2.4,0.2c0.7,0.1,1.3,0.5,1.2,1.4c-0.1,0.6-0.7,0.9-1.2,0.9c-1.6,0-3.3-0.1-4.9,0
		c-2.4,0.2-5.3-0.9-6.7,2.4c-0.4,0.8-1.7,0.6-2.7,0.7c-2.8,0.2-5.7,0.4-8.6,1.3c1.3,0.2,2.5,0.3,3.8,0.5c0.4,0.1,0.8,0.4,0.7,0.9
		c-0.1,0.4-0.4,0.9-0.6,0.9c-0.9,0.2-1.9,0.2-2.8,0.3c-8.4,0.1-16.7,0.4-25,1.5c-0.5,0.1-1.1,0.1-1.6,0.1c-0.6,0-1.1-0.1-1.3-0.7
		c-0.3-0.8,0.3-1.3,0.9-1.6c0.9-0.3,1.8-0.6,2.8-0.7c2.1-0.3,4.4-0.1,5.7-2.4c0.7-1.3,2.5-0.9,3.8-1.1c2.2-0.4,4.4-0.4,6.3-2.3
		c1.6-1.6,4.4-1.2,6.7-1.5c1.1-0.2,2.3-0.1,2.6-1.5c0.4-1.9,2-2.1,3.5-2.3c2.6-0.3,5.2-0.5,7.8-0.7c1.1-0.1,2.2-0.2,2.5-1.6
		c0.5-2,2.2-2.3,3.8-2.7c2.6-0.6,5.3-1.1,8.2-1.7c-1.4-1-2.6-0.6-3.8-0.7c-0.8-0.1-1.8,0-2-1c-0.2-1.4,1.1-1.4,1.9-1.6
		c0.7-0.2,1.4-0.2,2-0.2c1.6-0.1,3.3,0.1,3.7-2.2c0.2-1.1,1.4-1.2,2.3-1.5c1.3-0.3,2.3-0.7,2-2.4c-0.2-1.2,1-1.5,1.9-1.8
		c1.5-0.5,3-0.3,4.5-0.4c1,0,2.3,0.2,2.7-0.7c1.2-2.5,3.3-2.1,5.3-2.2c12.1-0.8,24.1,0.4,36.2-0.3c0.3,0,0.6,0,0.8,0
		c0.8,0.1,1.7,0.3,1.7,1.4c0,0.8-0.8,1.1-1.5,1.1c-1,0.1-1.9,0.1-2.9,0.1c-4.8,0-9.6,0.1-14.4,0.1
		C329.1,370.1,327.6,369.9,325.4,370.8z M299.8,373.9c0.5,0.2,0.6,0.3,0.7,0.3c0.7,0,1.3,0,2-0.2c0.3-0.1,0.2-0.5-0.2-0.5
		c-0.7-0.1-1.3,0-2,0C300.2,373.5,300.1,373.7,299.8,373.9z M299.9,432.2c-4.6,0.1-9,0.7-13.4,2c-22.6,6.3-45.3,12.2-68.2,17.5
		c-16.6,3.9-32.5,10.1-48.4,16c-24.1,8.9-48,18.1-71.1,29.5c-6,3-11.9,6.3-17.4,10.1c-0.9,0.6-1.8,1.3-2.6,2
		c-0.6,0.5-0.7,1.2-0.2,1.9c0.5,0.7,1.2,0.6,1.8,0.3c1.2-0.6,2.4-1.3,3.6-2.1c6.4-4.1,13-7.7,19.8-11c20.7-10,42-18.4,63.5-26.3
		c16.5-6,32.8-12.7,49.9-16.8c19.2-4.7,38.5-9.1,57.5-14.6c6.9-2,13.6-4.4,20.7-5.2c1.9-0.2,3.8-0.3,5.7-0.5
		c0.9-0.1,1.6-0.4,1.6-1.5C302.2,432.1,301,432.2,299.9,432.2z M837.5,650c-13.3-13.1-32.3-31.8-46.8-43.6
		c-30.3-24.6-62.1-47.1-95-68.1c-16.1-10.3-32.8-19.5-50.2-27.3c-0.5-0.2-1-0.4-1.5,0c-0.6,0.5-0.6,1.3-0.2,1.9
		c0.8,1.4,2.3,1.9,3.7,2.5c8.5,3.6,16.7,7.7,24.7,12.3c29.4,17,57.2,36.4,84.6,56.4c26.9,19.6,57.4,47.1,81,70.7
		c0.6,0.6,1,1.3,2.2,1.4C841.1,653.2,839.2,651.7,837.5,650z M833.4,622c-5.2-5.3-10.5-10.5-16.1-15.4c-18-15.8-37.7-29.3-57.7-42.5
		c-23.7-15.6-48.4-29.8-72.5-44.8c-13.4-8.3-27-16.4-39-26.8c-0.3-0.3-0.6-0.5-1-0.7c-0.5-0.3-1-0.3-1.5,0.1s-0.5,1-0.2,1.5
		c0.7,1.4,1.9,2.3,3.1,3.3c5.6,4.7,11.5,9,17.5,13c16.6,11.1,33.8,21.1,50.8,31.4c22.2,13.5,44.2,27.1,65.4,42.2
		c18,12.8,35.5,26.4,50.7,42.6c0.5,0.5,1,0.9,1.9,1.7C835.7,625,834.8,623.5,833.4,622z M223.4,426.7c-2.6,0.5-5.1,1.2-7.6,1.9
		c-13.5,4.1-27,8.3-40.7,11.9c-37.4,9.8-74.8,19.9-111.6,32.1c-9.6,3.2-19.3,6.2-28.7,10.1c-1.8,0.7-3.6,1.4-5.1,2.7
		c-0.6,0.5-0.8,1.1-0.3,1.8c0.3,0.5,0.9,0.7,1.5,0.5c0.9-0.3,1.8-0.7,2.7-1c3.2-1.3,6.3-2.6,9.6-3.8c20.3-7.3,40.9-13.6,61.5-19.8
		c26.9-8.1,54.3-14.8,81.4-22.3c11-3,21.8-6.6,32.7-9.9c1.6-0.5,3.2-1.3,5.1,0c1.4,0.9,2.9-0.3,2.9-2.1
		C226.7,427.2,225.5,426.3,223.4,426.7z M808.6,578.2c-20.6-17.2-42.7-32.2-66-45.6c-18.2-10.5-13-7.6-31.6-17.4
		c-13.5-7.1-26.8-14.5-38.4-24.6c-0.7-0.6-1.6-1.5-2.5-0.5c-0.9,0.9-0.1,1.8,0.6,2.5c0.8,0.8,1.5,1.6,2.4,2.3
		c3.6,3.2,7.6,5.9,11.6,8.5c14.1,9.4,5.3,4.5,20.3,12.3c36.5,18.9,71.8,39.7,103.3,66.5c0.7,0.6,1.3,1.4,2.6,1.3
		C812.3,580.8,810.2,579.6,808.6,578.2z M196.3,442.5c-22.7,5.9-45.3,11.9-67.6,19.3c-28.5,9.4-56.8,19.5-84.1,32.3
		c-6.5,3-12.9,6.1-19.1,9.6c-1.8,1-3.6,2.1-4.8,3.8c-0.4,0.6-0.6,1.2-0.1,1.9c0.5,0.6,1.2,0.6,1.8,0.2c2.7-1.6,5.3-3.4,8.1-4.9
		c8.7-4.7,17.7-8.7,26.7-12.7c25.3-11.4,51.6-20.3,77.9-28.7c21-6.7,42.1-13.3,63.8-17.3c0.3,0,0.5-0.1,0.8-0.2
		c1.1-0.5,2.1-1,1.7-2.4c-0.3-1.1-1.4-1.2-2.9-1.2C198.1,442.2,197.2,442.3,196.3,442.5z M448.9,392.5c-1.6,1.4-2,3.8-4.2,4.8
		c-1.3,0.5-0.9,1.8,0.6,2.2c1.8,0.5,3.6,0.8,5.6,0.2c3.9-1.1,7.9-2.3,12-2.6c1.9-0.2,2-1.3,0.8-2.5c-1.8-1.7-0.4-2.3,0.9-2.8
		c1.4-0.5,2.9-0.8,4.3-1.3s1.5-1.3,0.3-2.3c-0.5-0.4-1.6,0-1.5-1.4c0.2-2.6,0-2.6-2.1-2.1c-1,0.2-2.4,1.4-2.9,0.1
		c-1.3-3.1-3.5-2-5.5-1.4c-10.2,2.9-21,3.9-30.8,8.4c-3.5,1.6-7.3,2.3-11,3.3c-1.3,0.4-2.7,1.3-3.9,1.1c-5.6-1.1-10.5,1.4-15.7,2.3
		c-2.9,0.5-4.1,2.4-4.7,4.9c-0.6,2.6,0.7,4.1,3.2,3.5c5.5-1.2,10.8-3,16.5-3.6c1-0.1,2.1-0.6,1.7-1.8c-0.6-2.3,0.9-2.9,2.5-3.4
		c7.5-2.1,14.8-5.1,22.6-6c0.8-0.1,1.7-0.2,2.2-1c0.9-1.3,2.3-1.3,3.6-1.8c3.4-1.4,7-0.3,10.6-0.5
		C452.6,390.8,450.4,391.2,448.9,392.5z M596.7,409.4c2.8,1.4,5.6,2.8,8.4,4.3c0.5,0.3,1.1,0.4,1.5-0.1c0.6-0.6,0.4-1.3-0.1-1.8
		c-0.4-0.4-0.8-0.8-1.3-1c-5.6-3.4-12.1-5.2-17.7-8.7c-0.7-0.5-1.7-0.2-2.2,0.6c-0.6,0.9,0,1.6,0.7,2c2,1.1,4.9,1.5,4,5
		c0,0.2,0.2,0.5,0.4,0.7c3.1,2,5.4,4.8,7.5,7.8c0.4,0.6,1.3,1,2,1.4c1.3,0.8,2.1,2,3.1,3.1c2.3,2.7,2.5,6.2,4.4,9.1
		c1,1.5,2.9,2.4,3.1,4.1c0.3,2.8,2.3,3.9,4.2,5.2c3.6,2.3,7.2,4.5,10.8,6.7c0.7,0.4,1.9,0.6,1.7,2.1c-1.6-0.2-2.9-0.9-4.2-1.5
		c-2.2-1.1-4.4-2.3-6.5-3.5c-0.5-0.3-1.1-0.4-1.5,0.1s-0.3,1,0.1,1.5c0.4,0.4,0.7,0.8,1.2,1.1c4.8,3,10.1,4.8,15.1,7.4
		c0.6,0.3,1.8-0.2,1.5-0.7c-1-1.6,0.4-3.2-0.2-4.6c-0.4-1.2-1.6-1.8-2.7-2.4c-2.3-1.2-4.7-2.3-4.7-5.5c0-0.3-0.4-0.7-0.7-1
		c-1.9-1.8-4.9-2.6-4.7-6.1c0-0.6-1.4-1.2-2.1-1.8c-0.8-0.6-2-0.7-2.4-2c1.8,0.1,3.1,1.2,4.7,1.6c0.7,0.2,1.5,0.3,1.9-0.3
		c0.4-0.7,0-1.4-0.7-1.7c-4-2.1-6.6-6-10.9-7.9c-2.7-1.2-5.5-2.4-6.5-5.8c-0.3-1-1.7-1.7-2.8-2.3c-1.9-1.3-4-2.4-5.9-3.7
		c-0.8-0.5-2-0.9-2-2.3C594.6,408.1,595.6,408.9,596.7,409.4z M380.9,351.5c1.6,0.2,4.5,1.6,4.7-0.2c0.4-2.4-2.8-1.9-4.4-2.2
		c-8.9-1.5-17.9-2.4-26.9-3.1c-2.3-0.2-4.3-0.1-6.2,1.3c-0.5,0.4-1.4,0.4-1.5,1.2c-0.1,0.9,0.6,1.5,1.4,1.8c1,0.3,2.1,0.7,3.1,0.9
		c3.4,0.6,6.8,0.9,10.2,1.6c3.2,0.6,6.6,0.6,9.5,2.2c-3,0-6-0.1-9-0.5c-7.6-1-15.3-0.8-22.9-2.3c-2.2-0.4-5.2,0.8-5,1.6
		c0.6,2.3,2.7,1.9,4.4,2.2c6.1,0.9,12.2,1.5,18.3,2.5c6.2,1.1,12.5,1.2,18.8,2.3c0.7,0.1,1.6,0.3,2,0c2.5-2.2,5.1-1.1,7.8-0.5
		c0.9,0.2,1.9,1,2.7,0c0.9-1.1-0.2-2.1-0.5-3.1c-0.4-1.3-1.6-1.9-2.8-2.2c-2.1-0.7-4.2-1.3-6.3-1.8c-3.6-0.8-7.2-1.5-10.7-2.2
		C372.1,350,376.5,351,380.9,351.5z M315.5,623.3c0.5,1.5,0.8,4.1,2.7,3.5c2.5-0.8,0.7-3,0.3-4.5c-1.7-5.8-3.6-11.5-4.1-17.6
		c-1.1-14.9,0.7-29.7,3.2-44.2c2.6-15.6,8.2-30.4,14.7-44.8c0.9-2,2-3.9,3.5-5.6c0.7-0.8,2-1.6,0.8-2.7c-1-0.9-2.1-0.1-2.9,0.8
		c-0.7,0.8-1.5,1.7-2,2.6c-1.3,2.4-2.7,4.8-3.8,7.3c-7.4,17.6-13.9,35.5-15.2,54.8c-0.6,8.1-1.6,16.1-1.8,20.4
		C310.7,606.1,312.5,614.8,315.5,623.3z M227.9,376.5c0.8-0.1,1.8-0.2,1.9-1.2c0-1.1-1-1-1.8-1.1c-0.3,0-0.5,0-0.8,0
		c-7.6,0.6-14.7,3.1-21.7,5.8c-1.1,0.4-2.1,1.2-1.4,2.5c1,1.8-0.3,2.1-1.3,2.7c-4.1,2.1-8.3,4.2-12.4,6.4c-1.2,0.6-2.8,1-3.5,2
		c-2.1,3.1-5.4,4-8.5,5.4c-1.4,0.6-2.8,1.1-3.9,2.2c-0.4,0.4-0.6,0.9-0.4,1.5c0.2,0.6,0.7,0.7,1.3,0.7c1.9,0,3.6,0.2,5.5-0.9
		c3.1-1.8,6.6-2.6,10.1-3.4c1.7-0.4,3.7-0.2,3.5-3c-0.1-0.8,1.1-1.2,1.9-1.4c1.6-0.4,3.2-0.6,4.8-1.1c1.3-0.3,3.6,0.4,3.7-1.6
		c0.1-1.8-2.5-0.5-3.4-1.9c0.9-0.4,1.6-0.9,2.5-1.2c3.2-1.1,6.5-2.3,9.9-2.6c1.2-0.1,2.8-0.2,2.7-1.8c-0.2-2,1.1-2.1,2.4-2.6
		c1.7-0.6,3.6-0.2,5.2-1.1c0.5-0.3,0.9-0.7,0.6-1.3c-0.2-0.3-0.6-0.7-0.9-0.7c-1.3,0-2.7,0.2-4,0.3
		C221.9,377,224.9,376.9,227.9,376.5z M640.6,410.2c1.3,0.5,2.9,2.4,3.8,0.7c0.9-1.6-1.5-2.3-2.7-3c-4.7-2.5-9.6-4.7-13.9-8
		c-0.6-0.4-1.2-0.9-1.8-0.1c-0.5,0.7-0.2,1.3,0.2,1.9c0.8,1.1,2.6,1.5,2.9,2.9c0.5,2.5,2.2,4,3.8,5.7c0.6,0.6,1.1,1.2,1.4,2
		c1.3,4.6,4,8.3,7.7,11.2c1.1,0.8,2.5,1.5,2.8,2.9c0.6,2.4,2.3,3.6,4.1,4.9c2.8,2,5.8,4.4,7.1,7.3c1.3,3,3.4,5.2,5.4,7.5
		c2.9,3.4,6.7,5.6,10.6,7.7c0.5,0.3,1.1,0.4,1.5-0.1c0.6-0.6,0.3-1.3-0.2-1.8s-1.2-0.7-1.6-1.2c-2.3-2.8-6.9-3.8-6.6-8.6
		c0-0.3-0.4-0.7-0.7-0.9c-2-1.5-4.1-2.8-4.5-5.5c-3.2-1.7-4.9-4.9-7.3-7.4c-1.6-1.6-3.2-3-3.8-5.1c-1.1-3.6-3.8-5.9-6.6-8.1
		c-2.3-1.9-4.7-3.7-7.1-6.6C637.8,408.4,639.1,409.6,640.6,410.2z M232.4,422.6c1,0,1.5-0.8,1-1.7c-0.8-1.4,0.3-1.8,1.2-1.9
		c2.3-0.3,4.6-0.3,7-0.5c1-0.1,2.3-0.2,2-1.4c-0.7-2.4,2.1-1.8,2.4-3.1c0.5-1.9,2-2,3.5-2c0.7,0,1.5-0.2,1.5-1
		c0.1-1.2-0.9-1.3-1.7-1.3c-5.7,0.2-11.5-0.1-17.2,0.9c-1.1,0.2-2.3,0.5-2.7,1.6c-0.7,2-2.4,2.1-3.9,2.5c-1.6,0.4-3.3,0.5-3.7,2.6
		c-0.2,1.1-1.2,1.5-2.1,1.6c-4.3,0.5-8,2.7-12.1,3.6c-0.8,0.2-1.8,0.4-1.7,1.4c0,1.4,1.2,1.2,1.8,1.2
		C216,424.2,224.1,422.6,232.4,422.6z M315.9,361.3c-0.9,0-1.7,0.1-1.8,1.2c0,1,0.8,1.4,1.6,1.5c1.2,0.1,2.5,0.2,3.7,0.3
		c14.9,0.9,29.9,0.3,44.8,1.6c2,0.2,4.2-1.8,4-3.8s-2.1-1.8-3.5-2c-4.1-0.7-8.2-0.6-12.3-0.8c-9-0.5-18.1-0.5-27.1,0.2
		c-1.5,0.1-3,0.1-4.2,1.3c-1,1-2.3,0.6-3.5,0.6C317,361.4,316.5,361.4,315.9,361.3z M371.8,394.8c-6.4,1.4-12.9,2.7-19.3,4.1
		c-18.9,4.1-37.2,10.1-55.3,17c-0.9,0.3-1.8,0.7-2.6,1.2c-0.6,0.3-1.2,0.7-1.7,1.1c-0.5,0.5-0.8,1.1-0.5,1.8c0.3,0.7,1,1,1.7,0.9
		c1.7-0.2,3.2-0.8,4.5-1.9c1.1-0.9,2.2-1.6,3.5-2c7.8-2.7,15.5-5.5,23.4-7.7c16.2-4.6,32.5-8.6,48.8-12.5c0.8-0.2,2.2,0,1.9-1.5
		c-0.2-1.1-1.2-0.9-2.2-0.9C373.4,394.5,372.6,394.7,371.8,394.8z M341.9,411c-0.6,0.4-1,1-0.8,1.7c0.3,1,1.2,1.1,2,0.9
		c0.5-0.1,1-0.4,1.5-0.6c9.2-3.5,18.7-6.2,28.3-8.2c1.9-0.4,5.1,0.7,3.9-3.4c0-0.1,0.2-0.2,0.3-0.3c0.6-0.5,1.6-0.9,1-1.9
		c-0.6-1.1-1.7-0.6-2.6-0.4c-6.2,0.8-12.4,2-18.5,3.6c-7.5,2-15.1,3.8-22.5,6.4c-1.3,0.5-3.5,0.8-2.6,2.8c0.9,1.9,2.6,0.9,3.9,0.1
		c2.6-1.7,5.5-2.3,8.5-2.2C343.6,410.1,342.7,410.5,341.9,411z M615.7,450.7c0.1,0.9,0.8,1.4,1.4,2c5,4.6,10.8,8.3,15.6,13.1
		c1.8,1.8,4.4,2.8,5,5.7c0.2,0.9,1.4,1.7,2.2,2.3c2.3,1.8,4.6,3.4,7,5.1c1.9,1.3,4,2.4,6.2,3.2c0.6,0.3,1.4,0.5,1.9-0.1
		c0.8-0.8,0.1-1.6-0.3-2.2c-0.4-0.5-0.9-1.1-1.5-1.4c-1.7-0.8-3.1-1.6-3.7-3.6c-0.4-1.2-1.7-1.8-2.7-2.4c-1.8-1.2-3.6-2.5-5.5-3.6
		c-1.5-0.9-2.1-1.9-2.4-3.8c-0.7-5.2-1-5.1-6.3-7.1c-5-1.9-9.9-4.1-14.2-7.3c-0.5-0.4-1-0.9-1.7-1
		C615.9,449.7,615.6,450.1,615.7,450.7z M340.8,459c0.7-0.1,1.5,0.1,1.6-0.8c0.2-1.2-0.7-1.3-1.5-1.4c-3.2-0.4-6.2,0.5-9.2,1.5
		c-9.1,2.9-16.6,8.6-25,12.8c-0.4,0.2-0.7,0.5-0.9,0.8c-0.6,1.1-0.4,1.9,0.9,2.1c0.7,0.1,1.4,0.1,1.9-0.4c2.4-2,5.4-2.6,8.2-3.5
		c4.4-1.5,8.9-2.8,13.3-4.1c0.8-0.2,1.7-0.4,1.6-1.5c-0.1-1.2-1.1-0.9-1.9-0.9s-1.6,0.7-2.3-0.1C331,460.7,334.2,459.6,340.8,459z
		 M494.2,376.1c-0.1-1.5-0.7-2.1-2-1.3c-4.8,3.1-9.6,6.3-14.3,9.6c-1.6,1.1-1.3,2,0.7,2.4c1.8,0.4,1.6,1.2,0.8,2.2
		c-1.1,1.2-2.6,2-3.4,3.5c-0.3,0.5-0.4,1.1,0.2,1.4c0.3,0.2,0.9,0.3,1.1,0.1c0.7-0.4,1.3-0.9,2-1.4c3.9-3.1,8.2-5.4,12.7-7.5
		c1.3-0.6,3.8-0.5,3.4-2.2c-0.5-2.4-2.8,0.2-4.6-1C492.6,380.2,494.3,378.7,494.2,376.1z M281.8,474.5c3.4-1.5,6.8-3,10.1-4.5
		c0.8-0.4,2.2-0.7,1.7-1.9c-0.6-1.5-1.9-0.7-2.8-0.3c-6.8,3-13.5,6-20.3,9.1c-1.7,0.8-2.6,1.9-2.7,4.1c-0.1,3-0.1,3.3,2.4,2.2
		c6.4-2.5,12.8-4.9,19.5-6.4c0.9-0.2,2.2-0.2,2-1.5c-0.2-1.2-1.4-1.1-2.4-0.9c-0.9,0.1-1.9,0.4-2.8,0.6c-2.8,0.8-5.5,1.5-9.1,2.5
		C279,475.5,280.5,475.2,281.8,474.5z M403.5,390.1c-2.7,0.6-5.2,1.8-7.4,3.4c-0.7,0.5-1.5,1-1.1,1.9c0.4,1.1,1.3,0.6,2.1,0.3
		c3.3-1.4,6.8-1.9,10.4-2.4c1.1-0.2,2.2-0.2,3.3-0.3c1.5-0.2,3.4-2.2,3-3.3c-0.5-1.6-1.9-1.2-3.1-1.1c-1,0.1-2,0.4-2.5-0.7
		c-1.1-2.4-3.2-2.4-5.3-2.3c-6.8,0.1-13.3,1.5-19.6,3.8c-1,0.4-2,0.9-2.7,1.8c-0.3,0.5-0.5,1-0.2,1.5c0.4,0.5,1,0.5,1.5,0.3
		c0.4-0.1,0.7-0.4,1.1-0.5c5.4-2.6,11.2-3.6,17-4.4c1.7-0.2,3.5-0.5,5.3,0.5C404.8,389.9,404.2,390,403.5,390.1z M349.5,418.2
		c1.8-1.5,4.1-2.1,6.3-2.9c7.5-2.6,15.1-4.9,22.8-6.7c0.9-0.2,2.2-0.4,2-1.6s-1.4-1-2.4-0.8c-1.2,0.2-2.4,0.5-3.6,0.7
		c-7.8,1.9-15.6,4.3-23.2,6.9c-1,0.4-2.1,0.7-3.1,1.2s-2.1,1.1-1.6,2.4c0.6,1.4,1.8,0.9,2.8,0.5
		C349.6,418.1,349.5,418.2,349.5,418.2z M416,347.2c0.5-0.1,1.1-0.4,1.1-1c0-0.7-0.6-0.9-1.1-1c-4.5-0.5-9-0.3-13.4-1.3
		c-0.5-0.1-1.1,0.1-1.2,0.8c0,0.6,0.2,1,0.7,1.3c1.2,0.9,2.7,1.1,4.2,1.3c-2.4,0.5-4.7,0.3-7-0.1c-0.9-0.1-2.2-0.6-2.4,0.7
		c-0.2,1.4,1.2,1.6,2.2,1.9c0.4,0.1,0.8,0.1,1.2,0.1c3.7,0.3,7.3,0.7,11,0.9c1.3,0.1,3.4,1.1,3.8-0.9c0.3-1.8-2.3-0.8-3.5-2.3
		C413.4,347.6,414.7,347.5,416,347.2z M234.7,405.8c-1.1,0.2-2.1,0.5-3.1,0.9c-0.7,0.2-1.2,0.9-1,1.6c0.2,1.1,1.1,1,2,0.8
		c8.3-2.1,16.7-2.7,25.1-3.5c0.7-0.1,1.4-0.1,2-0.4c0.3-0.1,0.5-0.6,0.6-1s-0.3-0.8-0.7-0.8c-1.4-0.1-2.7,0-4.1,0
		C248.4,403.8,241.5,404.5,234.7,405.8z M351.6,421.3c-0.8,1.1-2.1,1.2-3.1,1.8c-0.7,0.4-1.6,0.8-1.1,1.9c0.5,1,1.4,0.7,2.2,0.4
		c3.1-0.9,6.3-1.9,9.4-2.7c4.2-1.1,8.5-1.9,12.9-2.2c0.7-0.1,1.5-0.1,1.5-1c0-1.1-0.9-1.2-1.7-1.3c-1.9-0.1-3.8,0.2-5.7,0.4
		C361.1,419.4,356.4,420.9,351.6,421.3C351.5,421.3,351.6,421.3,351.6,421.3z M351.6,421.3C351.6,421.3,351.5,421.3,351.6,421.3
		c5.5-2.4,11.3-3.8,17.1-5.3c1.3-0.3,2.7-0.6,4-0.9c0.7-0.2,1.4-0.5,1.2-1.3c-0.2-0.9-1-0.9-1.6-0.8c-1.5,0.2-3,0.4-4.4,0.7
		c-6.1,1.5-12.2,3-18.3,4.5l0.1-0.1C349.6,419.6,350,420.7,351.6,421.3z M422,399.9c3.8-1.1,7.6-2.2,11.4-3.2c1.3-0.4,2.7-0.6,4-0.9
		c0.8-0.2,1.8-0.3,1.5-1.4c-0.2-1-1.3-0.9-2-0.8c-0.7,0-1.4,0.1-2,0.3c-4.9,1.3-9.8,2.5-14.6,3.8c-0.7,0.2-1.3,0.5-1.9,0.8
		s-1.2,0.8-0.9,1.6c0.2,0.6,0.8,0.6,1.9,0.6C419.9,400.4,421,400.1,422,399.9z M279,502.3c-0.8,0.5-1.7,1.3-0.8,2.3
		c0.7,0.8,1.5,0.1,2.2-0.2c4.8-2.7,9.8-4.9,15.1-6.2c0.8-0.2,1.8-0.3,1.7-1.4c-0.1-1-1.1-1-2.6-1C289.6,497.2,284.1,499.2,279,502.3
		z M400.4,341c3,0,6,0,9,0c0.7,0,1.5,0,1.6-0.9c0.2-1.2-0.9-1.2-1.6-1.2c-5.6-0.2-11.2,0-16.8,0.3c-0.4,0-0.8,0.2-1.2,0.3
		c-0.7,0.3-1.3,0.7-1.2,1.4c0.1,0.8,0.9,1,1.6,0.9c2.9-0.2,5.7-0.4,8.6-0.6C400.4,341.2,400.4,341.1,400.4,341z"/>
</g>
</svg>
